# xmcd CD database file generated by OrangeCD 6.4
#
# Track frame offsets:
#	150
#	2773
#	23256
#	26163
#	27863
#	46635
#	49560
#	52792
#	68148
#	94305
#	115677
#	117099
#	150119
#	151725
#	165284
#	198795
#	215982
#	217124
#	243322
#	250858
#	296338
#
# Disc length: 3987 seconds
#
# Revision: 11
# Processed by: cddbd v1.5.2PL0 Copyright (c) Steve Scherf et al.
# Submitted via: OrangeCD 6.4
#
DISCID=fd0f9115
DTITLE=Prince - Exodus
DYEAR=1995
DGENRE=Funk
TTITLE0=N.P.G. Operator Intro
TTITLE1=Get Wild
TTITLE2=Segue
TTITLE3=DJ Gets Jumped
TTITLE4=New Power Soul
TTITLE5=DJ Seduces Sonny
TTITLE6=Segue
TTITLE7=Count The Days
TTITLE8=The Good Life
TTITLE9=Cherry, Cherry
TTITLE10=Segue
TTITLE11=Return Of The Bump Squad
TTITLE12=Mashed Potato Girl Intro
TTITLE13=Segue
TTITLE14=Big Fun
TTITLE15=New Power Day
TTITLE16=Segue
TTITLE17=Hallucination Rain
TTITLE18=Bum Rush The Ship
TTITLE19=The Exodus Has Begun
TTITLE20=Outro
EXTD=Including Toratora\n\n YEAR: 1995
EXTT0=
EXTT1=
EXTT2=
EXTT3=
EXTT4=
EXTT5=
EXTT6=
EXTT7=
EXTT8=
EXTT9=
EXTT10=
EXTT11=
EXTT12=
EXTT13=
EXTT14=
EXTT15=
EXTT16=
EXTT17=
EXTT18=
EXTT19=
EXTT20=
PLAYORDER=
